<svg xmlns="http://www.w3.org/2000/svg" xmlns:xlink="http://www.w3.org/1999/xlink"><symbol id="facebook" viewBox="0 0 32 32"><path d="M32 9a9 9 0 00-9-9H9a9 9 0 00-9 9v14a9 9 0 009 9h14a9 9 0 009-9V9z"/><path d="M24 16c0-4.4-3.6-8-8-8s-8 3.6-8 8c0 4 2.9 7.3 6.7 7.9v-5.6h-2V16h2v-1.8c0-2 1.2-3.1 3-3.1.9 0 1.8.2 1.8.2v2h-1c-1 0-1.3.6-1.3 1.2V16h2.2l-.4 2.3h-1.9V24c4-.6 6.9-4 6.9-8z"/></symbol><symbol id="instagram" viewBox="0 0 32 32"><path d="M32 9a9 9 0 00-9-9H9a9 9 0 00-9 9v14a9 9 0 009 9h14a9 9 0 009-9V9z"/><path d="M16 9.2h3.4c.8 0 1.2.2 1.5.3.4.2.7.3 1 .6.3.3.5.6.6 1 .1.3.2.7.3 1.5v6.8c0 .8-.2 1.2-.3 1.5-.2.4-.3.7-.6 1-.3.3-.6.5-1 .6-.3.1-.7.2-1.5.3h-6.8c-.8 0-1.2-.2-1.5-.3-.4-.2-.7-.3-1-.6-.3-.3-.5-.6-.6-1-.1-.3-.2-.7-.3-1.5V16v-3.4c0-.8.2-1.2.3-1.5.2-.4.3-.7.6-1 .3-.3.6-.5 1-.6.3-.1.7-.2 1.5-.3H16zm0-1.5h-3.4c-.9 0-1.5.2-2 .4s-1 .5-1.5 1-.7.9-1 1.5c-.2.5-.3 1.1-.4 2v6.8c0 .9.2 1.5.4 2s.5 1 1 1.5.9.7 1.5 1c.5.2 1.1.3 2 .4h6.8c.9 0 1.5-.2 2-.4s1-.5 1.5-1 .7-.9 1-1.5c.2-.5.3-1.1.4-2V16v-3.4c0-.9-.2-1.5-.4-2s-.5-1-1-1.5-.9-.7-1.5-1c-.5-.2-1.1-.3-2-.4H16z"/><path d="M16 11.7c-2.4 0-4.3 1.9-4.3 4.3s1.9 4.3 4.3 4.3 4.3-1.9 4.3-4.3-1.9-4.3-4.3-4.3zm0 7.1c-1.5 0-2.8-1.2-2.8-2.8 0-1.5 1.2-2.8 2.8-2.8 1.5 0 2.8 1.2 2.8 2.8 0 1.5-1.3 2.8-2.8 2.8zM20.4 12.6a1 1 0 100-2 1 1 0 000 2z"/></symbol><symbol id="linkedin" viewBox="0 0 32 32"><path d="M32 9a9 9 0 00-9-9H9a9 9 0 00-9 9v14a9 9 0 009 9h14a9 9 0 009-9V9z"/><path d="M11.6 24H8.2V13.3h3.4V24zM9.9 11.8C8.8 11.8 8 11 8 9.9 8 8.8 8.9 8 9.9 8c1.1 0 1.9.8 1.9 1.9 0 1.1-.8 1.9-1.9 1.9zM24 24h-3.4v-5.8c0-1.7-.7-2.2-1.7-2.2s-2 .8-2 2.3V24h-3.4V13.3h3.2v1.5c.3-.7 1.5-1.8 3.2-1.8 1.9 0 3.9 1.1 3.9 4.4V24h.2z"/></symbol><symbol id="revievs-next" viewBox="0 0 20 18"><path d="M1.25 7.75h14.825L11.538 2.3A1.251 1.251 0 1113.463.7l6.25 7.5c.041.06.08.122.112.187 0 .063 0 .1.088.163.056.143.086.296.087.45a1.25 1.25 0 01-.087.45c0 .062 0 .1-.088.162-.033.066-.07.128-.113.188l-6.25 7.5a1.25 1.25 0 01-.962.45 1.25 1.25 0 01-.963-2.05l4.538-5.45H1.25a1.25 1.25 0 110-2.5z"/></symbol><symbol id="revievs-prev" viewBox="0 0 20 18"><path d="M18.75 7.75H3.925L8.463 2.3A1.252 1.252 0 006.538.7L.287 8.2c-.043.06-.08.122-.113.187 0 .063 0 .1-.087.163A1.25 1.25 0 000 9c.001.154.03.307.088.45 0 .062 0 .1.087.162.033.066.07.128.112.188l6.25 7.5a1.25 1.25 0 00.963.45 1.25 1.25 0 00.963-2.05l-4.538-5.45H18.75a1.25 1.25 0 100-2.5z"/></symbol><symbol id="twitter" viewBox="0 0 32 32"><path d="M32 9a9 9 0 00-9-9H9a9 9 0 00-9 9v14a9 9 0 009 9h14a9 9 0 009-9V9z"/><path d="M24 11c-.6.3-1.2.4-1.9.5.7-.4 1.2-1 1.4-1.8-.6.4-1.3.6-2.1.8-.6-.6-1.5-1-2.4-1-2.1 0-3.7 2-3.2 4-2.7-.1-5.1-1.4-6.8-3.4-.9 1.5-.4 3.4 1 4.4-.5 0-1-.2-1.5-.4 0 1.5 1.1 2.9 2.6 3.3-.5.1-1 .2-1.5.1.4 1.3 1.6 2.3 3.1 2.3-1.2.9-3 1.4-4.7 1.2 1.5.9 3.2 1.5 5 1.5 6.1 0 9.5-5.1 9.3-9.8.7-.4 1.3-1 1.7-1.7z"/></symbol></svg>