<svg width="333" height="333" viewBox="0 0 333 333" fill="none" xmlns="http://www.w3.org/2000/svg">
<g opacity="0.2">
<circle cx="1.82967" cy="1.82967" r="1.82967" fill="#102E49"/>
<circle cx="1.82967" cy="177.478" r="1.82967" fill="#102E49"/>
<circle cx="1.82967" cy="23.7857" r="1.82967" fill="#102E49"/>
<circle cx="1.82967" cy="199.434" r="1.82967" fill="#102E49"/>
<circle cx="45.7417" cy="1.82967" r="1.82967" fill="#102E49"/>
<circle cx="45.7417" cy="177.478" r="1.82967" fill="#102E49"/>
<circle cx="45.7417" cy="23.7857" r="1.82967" fill="#102E49"/>
<circle cx="45.7417" cy="199.434" r="1.82967" fill="#102E49"/>
<circle cx="23.7857" cy="1.82967" r="1.82967" fill="#102E49"/>
<circle cx="23.7857" cy="177.478" r="1.82967" fill="#102E49"/>
<circle cx="23.7857" cy="23.7857" r="1.82967" fill="#102E49"/>
<circle cx="23.7857" cy="199.434" r="1.82967" fill="#102E49"/>
<circle cx="67.6978" cy="1.82967" r="1.82967" fill="#102E49"/>
<circle cx="67.6978" cy="177.478" r="1.82967" fill="#102E49"/>
<circle cx="67.6978" cy="23.7857" r="1.82967" fill="#102E49"/>
<circle cx="67.6978" cy="199.434" r="1.82967" fill="#102E49"/>
<circle cx="89.6538" cy="1.82967" r="1.82967" fill="#102E49"/>
<circle cx="89.6538" cy="177.478" r="1.82967" fill="#102E49"/>
<circle cx="89.6538" cy="23.7857" r="1.82967" fill="#102E49"/>
<circle cx="89.6538" cy="199.434" r="1.82967" fill="#102E49"/>
<circle cx="133.566" cy="1.82967" r="1.82967" fill="#102E49"/>
<circle cx="133.566" cy="177.478" r="1.82967" fill="#102E49"/>
<circle cx="133.566" cy="23.7857" r="1.82967" fill="#102E49"/>
<circle cx="133.566" cy="199.434" r="1.82967" fill="#102E49"/>
<circle cx="111.61" cy="1.82967" r="1.82967" fill="#102E49"/>
<circle cx="111.61" cy="177.478" r="1.82967" fill="#102E49"/>
<circle cx="111.61" cy="23.7857" r="1.82967" fill="#102E49"/>
<circle cx="111.61" cy="199.434" r="1.82967" fill="#102E49"/>
<circle cx="155.522" cy="1.82967" r="1.82967" fill="#102E49"/>
<circle cx="155.522" cy="177.478" r="1.82967" fill="#102E49"/>
<circle cx="155.522" cy="23.7857" r="1.82967" fill="#102E49"/>
<circle cx="155.522" cy="199.434" r="1.82967" fill="#102E49"/>
<circle cx="177.478" cy="1.82967" r="1.82967" fill="#102E49"/>
<circle cx="177.478" cy="177.478" r="1.82967" fill="#102E49"/>
<circle cx="177.478" cy="23.7857" r="1.82967" fill="#102E49"/>
<circle cx="177.478" cy="199.434" r="1.82967" fill="#102E49"/>
<circle cx="221.39" cy="1.82967" r="1.82967" fill="#102E49"/>
<circle cx="221.39" cy="177.478" r="1.82967" fill="#102E49"/>
<circle cx="221.39" cy="23.7857" r="1.82967" fill="#102E49"/>
<circle cx="221.39" cy="199.434" r="1.82967" fill="#102E49"/>
<circle cx="199.434" cy="1.82967" r="1.82967" fill="#102E49"/>
<circle cx="199.434" cy="177.478" r="1.82967" fill="#102E49"/>
<circle cx="199.434" cy="23.7857" r="1.82967" fill="#102E49"/>
<circle cx="199.434" cy="199.434" r="1.82967" fill="#102E49"/>
<circle cx="243.346" cy="1.82967" r="1.82967" fill="#102E49"/>
<circle cx="243.346" cy="177.478" r="1.82967" fill="#102E49"/>
<circle cx="243.346" cy="23.7857" r="1.82967" fill="#102E49"/>
<circle cx="243.346" cy="199.434" r="1.82967" fill="#102E49"/>
<circle cx="265.302" cy="1.82967" r="1.82967" fill="#102E49"/>
<circle cx="265.302" cy="177.478" r="1.82967" fill="#102E49"/>
<circle cx="265.302" cy="23.7857" r="1.82967" fill="#102E49"/>
<circle cx="265.302" cy="199.434" r="1.82967" fill="#102E49"/>
<circle cx="309.214" cy="1.82967" r="1.82967" fill="#102E49"/>
<circle cx="309.214" cy="177.478" r="1.82967" fill="#102E49"/>
<circle cx="309.214" cy="23.7857" r="1.82967" fill="#102E49"/>
<circle cx="309.214" cy="199.434" r="1.82967" fill="#102E49"/>
<circle cx="287.258" cy="1.82967" r="1.82967" fill="#102E49"/>
<circle cx="287.258" cy="177.478" r="1.82967" fill="#102E49"/>
<circle cx="287.258" cy="23.7857" r="1.82967" fill="#102E49"/>
<circle cx="287.258" cy="199.434" r="1.82967" fill="#102E49"/>
<circle cx="331.17" cy="1.82967" r="1.82967" fill="#102E49"/>
<circle cx="331.17" cy="177.478" r="1.82967" fill="#102E49"/>
<circle cx="331.17" cy="23.7857" r="1.82967" fill="#102E49"/>
<circle cx="331.17" cy="199.434" r="1.82967" fill="#102E49"/>
<circle cx="1.82967" cy="45.7418" r="1.82967" fill="#102E49"/>
<circle cx="1.82967" cy="221.39" r="1.82967" fill="#102E49"/>
<circle cx="1.82967" cy="67.6978" r="1.82967" fill="#102E49"/>
<circle cx="1.82967" cy="243.346" r="1.82967" fill="#102E49"/>
<circle cx="45.7417" cy="45.7418" r="1.82967" fill="#102E49"/>
<circle cx="45.7417" cy="221.39" r="1.82967" fill="#102E49"/>
<circle cx="45.7417" cy="67.6978" r="1.82967" fill="#102E49"/>
<circle cx="45.7417" cy="243.346" r="1.82967" fill="#102E49"/>
<circle cx="23.7857" cy="45.7418" r="1.82967" fill="#102E49"/>
<circle cx="23.7857" cy="221.39" r="1.82967" fill="#102E49"/>
<circle cx="23.7857" cy="67.6978" r="1.82967" fill="#102E49"/>
<circle cx="23.7857" cy="243.346" r="1.82967" fill="#102E49"/>
<circle cx="67.6978" cy="45.7418" r="1.82967" fill="#102E49"/>
<circle cx="67.6978" cy="221.39" r="1.82967" fill="#102E49"/>
<circle cx="67.6978" cy="67.6978" r="1.82967" fill="#102E49"/>
<circle cx="67.6978" cy="243.346" r="1.82967" fill="#102E49"/>
<circle cx="89.6538" cy="45.7418" r="1.82967" fill="#102E49"/>
<circle cx="89.6538" cy="221.39" r="1.82967" fill="#102E49"/>
<circle cx="89.6538" cy="67.6978" r="1.82967" fill="#102E49"/>
<circle cx="89.6538" cy="243.346" r="1.82967" fill="#102E49"/>
<circle cx="133.566" cy="45.7418" r="1.82967" fill="#102E49"/>
<circle cx="133.566" cy="221.39" r="1.82967" fill="#102E49"/>
<circle cx="133.566" cy="67.6978" r="1.82967" fill="#102E49"/>
<circle cx="133.566" cy="243.346" r="1.82967" fill="#102E49"/>
<circle cx="111.61" cy="45.7418" r="1.82967" fill="#102E49"/>
<circle cx="111.61" cy="221.39" r="1.82967" fill="#102E49"/>
<circle cx="111.61" cy="67.6978" r="1.82967" fill="#102E49"/>
<circle cx="111.61" cy="243.346" r="1.82967" fill="#102E49"/>
<circle cx="155.522" cy="45.7418" r="1.82967" fill="#102E49"/>
<circle cx="155.522" cy="221.39" r="1.82967" fill="#102E49"/>
<circle cx="155.522" cy="67.6978" r="1.82967" fill="#102E49"/>
<circle cx="155.522" cy="243.346" r="1.82967" fill="#102E49"/>
<circle cx="177.478" cy="45.7418" r="1.82967" fill="#102E49"/>
<circle cx="177.478" cy="221.39" r="1.82967" fill="#102E49"/>
<circle cx="177.478" cy="67.6978" r="1.82967" fill="#102E49"/>
<circle cx="177.478" cy="243.346" r="1.82967" fill="#102E49"/>
<circle cx="221.39" cy="45.7418" r="1.82967" fill="#102E49"/>
<circle cx="221.39" cy="221.39" r="1.82967" fill="#102E49"/>
<circle cx="221.39" cy="67.6978" r="1.82967" fill="#102E49"/>
<circle cx="221.39" cy="243.346" r="1.82967" fill="#102E49"/>
<circle cx="199.434" cy="45.7418" r="1.82967" fill="#102E49"/>
<circle cx="199.434" cy="221.39" r="1.82967" fill="#102E49"/>
<circle cx="199.434" cy="67.6978" r="1.82967" fill="#102E49"/>
<circle cx="199.434" cy="243.346" r="1.82967" fill="#102E49"/>
<circle cx="243.346" cy="45.7418" r="1.82967" fill="#102E49"/>
<circle cx="243.346" cy="221.39" r="1.82967" fill="#102E49"/>
<circle cx="243.346" cy="67.6978" r="1.82967" fill="#102E49"/>
<circle cx="243.346" cy="243.346" r="1.82967" fill="#102E49"/>
<circle cx="265.302" cy="45.7418" r="1.82967" fill="#102E49"/>
<circle cx="265.302" cy="221.39" r="1.82967" fill="#102E49"/>
<circle cx="265.302" cy="67.6978" r="1.82967" fill="#102E49"/>
<circle cx="265.302" cy="243.346" r="1.82967" fill="#102E49"/>
<circle cx="309.214" cy="45.7418" r="1.82967" fill="#102E49"/>
<circle cx="309.214" cy="221.39" r="1.82967" fill="#102E49"/>
<circle cx="309.214" cy="67.6978" r="1.82967" fill="#102E49"/>
<circle cx="309.214" cy="243.346" r="1.82967" fill="#102E49"/>
<circle cx="287.258" cy="45.7418" r="1.82967" fill="#102E49"/>
<circle cx="287.258" cy="221.39" r="1.82967" fill="#102E49"/>
<circle cx="287.258" cy="67.6978" r="1.82967" fill="#102E49"/>
<circle cx="287.258" cy="243.346" r="1.82967" fill="#102E49"/>
<circle cx="331.17" cy="45.7418" r="1.82967" fill="#102E49"/>
<circle cx="331.17" cy="221.39" r="1.82967" fill="#102E49"/>
<circle cx="331.17" cy="67.6978" r="1.82967" fill="#102E49"/>
<circle cx="331.17" cy="243.346" r="1.82967" fill="#102E49"/>
<circle cx="1.82967" cy="89.6539" r="1.82967" fill="#102E49"/>
<circle cx="1.82967" cy="265.302" r="1.82967" fill="#102E49"/>
<circle cx="1.82967" cy="111.61" r="1.82967" fill="#102E49"/>
<circle cx="1.82967" cy="287.258" r="1.82967" fill="#102E49"/>
<circle cx="45.7417" cy="89.6539" r="1.82967" fill="#102E49"/>
<circle cx="45.7417" cy="265.302" r="1.82967" fill="#102E49"/>
<circle cx="45.7417" cy="111.61" r="1.82967" fill="#102E49"/>
<circle cx="45.7417" cy="287.258" r="1.82967" fill="#102E49"/>
<circle cx="23.7857" cy="89.6539" r="1.82967" fill="#102E49"/>
<circle cx="23.7857" cy="265.302" r="1.82967" fill="#102E49"/>
<circle cx="23.7857" cy="111.61" r="1.82967" fill="#102E49"/>
<circle cx="23.7857" cy="287.258" r="1.82967" fill="#102E49"/>
<circle cx="67.6978" cy="89.6539" r="1.82967" fill="#102E49"/>
<circle cx="67.6978" cy="265.302" r="1.82967" fill="#102E49"/>
<circle cx="67.6978" cy="111.61" r="1.82967" fill="#102E49"/>
<circle cx="67.6978" cy="287.258" r="1.82967" fill="#102E49"/>
<circle cx="89.6538" cy="89.6539" r="1.82967" fill="#102E49"/>
<circle cx="89.6538" cy="265.302" r="1.82967" fill="#102E49"/>
<circle cx="89.6538" cy="111.61" r="1.82967" fill="#102E49"/>
<circle cx="89.6538" cy="287.258" r="1.82967" fill="#102E49"/>
<circle cx="133.566" cy="89.6539" r="1.82967" fill="#102E49"/>
<circle cx="133.566" cy="265.302" r="1.82967" fill="#102E49"/>
<circle cx="133.566" cy="111.61" r="1.82967" fill="#102E49"/>
<circle cx="133.566" cy="287.258" r="1.82967" fill="#102E49"/>
<circle cx="111.61" cy="89.6539" r="1.82967" fill="#102E49"/>
<circle cx="111.61" cy="265.302" r="1.82967" fill="#102E49"/>
<circle cx="111.61" cy="111.61" r="1.82967" fill="#102E49"/>
<circle cx="111.61" cy="287.258" r="1.82967" fill="#102E49"/>
<circle cx="155.522" cy="89.6539" r="1.82967" fill="#102E49"/>
<circle cx="155.522" cy="265.302" r="1.82967" fill="#102E49"/>
<circle cx="155.522" cy="111.61" r="1.82967" fill="#102E49"/>
<circle cx="155.522" cy="287.258" r="1.82967" fill="#102E49"/>
<circle cx="177.478" cy="89.6539" r="1.82967" fill="#102E49"/>
<circle cx="177.478" cy="265.302" r="1.82967" fill="#102E49"/>
<circle cx="177.478" cy="111.61" r="1.82967" fill="#102E49"/>
<circle cx="177.478" cy="287.258" r="1.82967" fill="#102E49"/>
<circle cx="221.39" cy="89.6539" r="1.82967" fill="#102E49"/>
<circle cx="221.39" cy="265.302" r="1.82967" fill="#102E49"/>
<circle cx="221.39" cy="111.61" r="1.82967" fill="#102E49"/>
<circle cx="221.39" cy="287.258" r="1.82967" fill="#102E49"/>
<circle cx="199.434" cy="89.6539" r="1.82967" fill="#102E49"/>
<circle cx="199.434" cy="265.302" r="1.82967" fill="#102E49"/>
<circle cx="199.434" cy="111.61" r="1.82967" fill="#102E49"/>
<circle cx="199.434" cy="287.258" r="1.82967" fill="#102E49"/>
<circle cx="243.346" cy="89.6539" r="1.82967" fill="#102E49"/>
<circle cx="243.346" cy="265.302" r="1.82967" fill="#102E49"/>
<circle cx="243.346" cy="111.61" r="1.82967" fill="#102E49"/>
<circle cx="243.346" cy="287.258" r="1.82967" fill="#102E49"/>
<circle cx="265.302" cy="89.6539" r="1.82967" fill="#102E49"/>
<circle cx="265.302" cy="265.302" r="1.82967" fill="#102E49"/>
<circle cx="265.302" cy="111.61" r="1.82967" fill="#102E49"/>
<circle cx="265.302" cy="287.258" r="1.82967" fill="#102E49"/>
<circle cx="309.214" cy="89.6539" r="1.82967" fill="#102E49"/>
<circle cx="309.214" cy="265.302" r="1.82967" fill="#102E49"/>
<circle cx="309.214" cy="111.61" r="1.82967" fill="#102E49"/>
<circle cx="309.214" cy="287.258" r="1.82967" fill="#102E49"/>
<circle cx="287.258" cy="89.6539" r="1.82967" fill="#102E49"/>
<circle cx="287.258" cy="265.302" r="1.82967" fill="#102E49"/>
<circle cx="287.258" cy="111.61" r="1.82967" fill="#102E49"/>
<circle cx="287.258" cy="287.258" r="1.82967" fill="#102E49"/>
<circle cx="331.17" cy="89.6539" r="1.82967" fill="#102E49"/>
<circle cx="331.17" cy="265.302" r="1.82967" fill="#102E49"/>
<circle cx="331.17" cy="111.61" r="1.82967" fill="#102E49"/>
<circle cx="331.17" cy="287.258" r="1.82967" fill="#102E49"/>
<circle cx="1.82967" cy="133.566" r="1.82967" fill="#102E49"/>
<circle cx="1.82967" cy="309.214" r="1.82967" fill="#102E49"/>
<circle cx="1.82967" cy="155.522" r="1.82967" fill="#102E49"/>
<circle cx="1.82967" cy="331.171" r="1.82967" fill="#102E49"/>
<circle cx="45.7417" cy="133.566" r="1.82967" fill="#102E49"/>
<circle cx="45.7417" cy="309.214" r="1.82967" fill="#102E49"/>
<circle cx="45.7417" cy="155.522" r="1.82967" fill="#102E49"/>
<circle cx="45.7417" cy="331.171" r="1.82967" fill="#102E49"/>
<circle cx="23.7857" cy="133.566" r="1.82967" fill="#102E49"/>
<circle cx="23.7857" cy="309.214" r="1.82967" fill="#102E49"/>
<circle cx="23.7857" cy="155.522" r="1.82967" fill="#102E49"/>
<circle cx="23.7857" cy="331.171" r="1.82967" fill="#102E49"/>
<circle cx="67.6978" cy="133.566" r="1.82967" fill="#102E49"/>
<circle cx="67.6978" cy="309.214" r="1.82967" fill="#102E49"/>
<circle cx="67.6978" cy="155.522" r="1.82967" fill="#102E49"/>
<circle cx="67.6978" cy="331.171" r="1.82967" fill="#102E49"/>
<circle cx="89.6538" cy="133.566" r="1.82967" fill="#102E49"/>
<circle cx="89.6538" cy="309.214" r="1.82967" fill="#102E49"/>
<circle cx="89.6538" cy="155.522" r="1.82967" fill="#102E49"/>
<circle cx="89.6538" cy="331.171" r="1.82967" fill="#102E49"/>
<circle cx="133.566" cy="133.566" r="1.82967" fill="#102E49"/>
<circle cx="133.566" cy="309.214" r="1.82967" fill="#102E49"/>
<circle cx="133.566" cy="155.522" r="1.82967" fill="#102E49"/>
<circle cx="133.566" cy="331.171" r="1.82967" fill="#102E49"/>
<circle cx="111.61" cy="133.566" r="1.82967" fill="#102E49"/>
<circle cx="111.61" cy="309.214" r="1.82967" fill="#102E49"/>
<circle cx="111.61" cy="155.522" r="1.82967" fill="#102E49"/>
<circle cx="111.61" cy="331.171" r="1.82967" fill="#102E49"/>
<circle cx="155.522" cy="133.566" r="1.82967" fill="#102E49"/>
<circle cx="155.522" cy="309.214" r="1.82967" fill="#102E49"/>
<circle cx="155.522" cy="155.522" r="1.82967" fill="#102E49"/>
<circle cx="155.522" cy="331.171" r="1.82967" fill="#102E49"/>
<circle cx="177.478" cy="133.566" r="1.82967" fill="#102E49"/>
<circle cx="177.478" cy="309.214" r="1.82967" fill="#102E49"/>
<circle cx="177.478" cy="155.522" r="1.82967" fill="#102E49"/>
<circle cx="177.478" cy="331.171" r="1.82967" fill="#102E49"/>
<circle cx="221.39" cy="133.566" r="1.82967" fill="#102E49"/>
<circle cx="221.39" cy="309.214" r="1.82967" fill="#102E49"/>
<circle cx="221.39" cy="155.522" r="1.82967" fill="#102E49"/>
<circle cx="221.39" cy="331.171" r="1.82967" fill="#102E49"/>
<circle cx="199.434" cy="133.566" r="1.82967" fill="#102E49"/>
<circle cx="199.434" cy="309.214" r="1.82967" fill="#102E49"/>
<circle cx="199.434" cy="155.522" r="1.82967" fill="#102E49"/>
<circle cx="199.434" cy="331.171" r="1.82967" fill="#102E49"/>
<circle cx="243.346" cy="133.566" r="1.82967" fill="#102E49"/>
<circle cx="243.346" cy="309.214" r="1.82967" fill="#102E49"/>
<circle cx="243.346" cy="155.522" r="1.82967" fill="#102E49"/>
<circle cx="243.346" cy="331.171" r="1.82967" fill="#102E49"/>
<circle cx="265.302" cy="133.566" r="1.82967" fill="#102E49"/>
<circle cx="265.302" cy="309.214" r="1.82967" fill="#102E49"/>
<circle cx="265.302" cy="155.522" r="1.82967" fill="#102E49"/>
<circle cx="265.302" cy="331.171" r="1.82967" fill="#102E49"/>
<circle cx="309.214" cy="133.566" r="1.82967" fill="#102E49"/>
<circle cx="309.214" cy="309.214" r="1.82967" fill="#102E49"/>
<circle cx="309.214" cy="155.522" r="1.82967" fill="#102E49"/>
<circle cx="309.214" cy="331.171" r="1.82967" fill="#102E49"/>
<circle cx="287.258" cy="133.566" r="1.82967" fill="#102E49"/>
<circle cx="287.258" cy="309.214" r="1.82967" fill="#102E49"/>
<circle cx="287.258" cy="155.522" r="1.82967" fill="#102E49"/>
<circle cx="287.258" cy="331.171" r="1.82967" fill="#102E49"/>
<circle cx="331.17" cy="133.566" r="1.82967" fill="#102E49"/>
<circle cx="331.17" cy="309.214" r="1.82967" fill="#102E49"/>
<circle cx="331.17" cy="155.522" r="1.82967" fill="#102E49"/>
<circle cx="331.17" cy="331.171" r="1.82967" fill="#102E49"/>
</g>
</svg>
