<svg width="36" height="35" viewBox="0 0 36 35" fill="none" xmlns="http://www.w3.org/2000/svg">
<path opacity="0.6" d="M1.9072 24.0847C1.9072 24.0847 2.1557 27.1262 2.21345 28.0852C2.29045 29.3715 2.78745 30.8083 3.61695 31.8058C4.7877 33.2198 6.1667 33.7185 8.0077 33.722C10.1724 33.7255 25.9137 33.7255 28.0784 33.722C29.9194 33.7185 31.2984 33.2198 32.4692 31.8058C33.2987 30.8083 33.7957 29.3715 33.8744 28.0852C33.9304 27.1262 34.1789 24.0847 34.1789 24.0847" stroke="white" stroke-width="2.5" stroke-linecap="round" stroke-linejoin="round"/>
<path d="M11.868 6.32664V5.67739C11.868 3.54239 13.597 1.81339 15.732 1.81339H20.2505C22.3838 1.81339 24.1145 3.54239 24.1145 5.67739L24.1163 6.32664" stroke="white" stroke-width="2.5" stroke-linecap="round" stroke-linejoin="round"/>
<path d="M17.9913 26.1869V23.9224" stroke="white" stroke-width="2.5" stroke-linecap="round" stroke-linejoin="round"/>
<path fill-rule="evenodd" clip-rule="evenodd" d="M1.81235 11.6809V17.7482C5.16885 19.9619 9.19035 21.5124 13.6038 22.1267C14.1323 20.1999 15.8701 18.7877 17.9823 18.7877C20.0613 18.7877 21.8341 20.1999 22.3276 22.1442C26.7586 21.5299 30.7958 19.9794 34.1698 17.7482V11.6809C34.1698 8.71644 31.7846 6.32944 28.8201 6.32944H7.1796C4.2151 6.32944 1.81235 8.71644 1.81235 11.6809Z" stroke="white" stroke-width="2.5" stroke-linecap="round" stroke-linejoin="round"/>
</svg>
