<svg width="38" height="38" viewBox="0 0 38 38" fill="none" xmlns="http://www.w3.org/2000/svg">
<path fill-rule="evenodd" clip-rule="evenodd" d="M31.3749 31.3723C26.0266 36.7211 18.1071 37.8767 11.6262 34.8795C10.6695 34.4943 9.8851 34.183 9.1394 34.183C7.06235 34.1953 4.47704 36.2093 3.13338 34.8672C1.78972 33.5234 3.80521 30.936 3.80521 28.8465C3.80521 28.1007 3.50623 27.3303 3.12107 26.3717C0.122454 19.8918 1.27969 11.9697 6.62795 6.62261C13.4553 -0.207244 24.5475 -0.207243 31.3749 6.62085C38.2145 13.4613 38.2022 24.5442 31.3749 31.3723Z" stroke="white" stroke-width="2.5" stroke-linecap="round" stroke-linejoin="round"/>
<path opacity="0.6" d="M25.894 19.7227H25.9097" stroke="white" stroke-width="3" stroke-linecap="round" stroke-linejoin="round"/>
<path opacity="0.6" d="M18.8782 19.7227H18.894" stroke="white" stroke-width="3" stroke-linecap="round" stroke-linejoin="round"/>
<path opacity="0.6" d="M11.8625 19.7227H11.8782" stroke="white" stroke-width="3" stroke-linecap="round" stroke-linejoin="round"/>
</svg>
